<svg xmlns="http://www.w3.org/2000/svg" xmlns:xlink="http://www.w3.org/1999/xlink" viewBox="0 0 375.83 175.04"><defs><style>.cls-1{fill:url(#linear-gradient);}.cls-2{fill:url(#linear-gradient-2);}.cls-3{fill:#9e875f;}.cls-4{fill:#c0aa30;}.cls-5{fill:#bbbabb;}.cls-6{fill:#fff;}.cls-7{fill:#85d4f1;}</style><linearGradient id="linear-gradient" x1="-12296.35" y1="-13280.65" x2="-12175.86" y2="-13235.59" gradientTransform="matrix(-1, 0.08, -0.16, -0.99, -14276.78, -12000.29)" gradientUnits="userSpaceOnUse"><stop offset="0" stop-color="#9e9d9f"/><stop offset="0.07" stop-color="#bfbfc0"/><stop offset="0.13" stop-color="#d9d9da"/><stop offset="0.19" stop-color="#ebebeb"/><stop offset="0.23" stop-color="#f1f2f2"/><stop offset="0.29" stop-color="#eaebeb"/><stop offset="0.36" stop-color="#d9d9d9"/><stop offset="0.45" stop-color="#c0bfc0"/><stop offset="0.49" stop-color="#b1b0b1"/><stop offset="0.51" stop-color="#a4a4a5"/><stop offset="0.54" stop-color="#969697"/><stop offset="0.58" stop-color="#8e8d8f"/><stop offset="0.61" stop-color="#8b8b8c"/><stop offset="0.62" stop-color="#919193"/><stop offset="0.68" stop-color="#b8b8b9"/><stop offset="0.74" stop-color="#d6d6d7"/><stop offset="0.78" stop-color="#eaeaeb"/><stop offset="0.81" stop-color="#f1f2f2"/><stop offset="1" stop-color="#cfcdcd"/></linearGradient><linearGradient id="linear-gradient-2" x1="11.66" y1="-12736.09" x2="149.32" y2="-12763.22" gradientTransform="matrix(1, 0, 0, -1, 0, -12688.89)" gradientUnits="userSpaceOnUse"><stop offset="0" stop-color="#0372ad"/><stop offset="0.19" stop-color="#0695cf"/><stop offset="0.22" stop-color="#0f90c9"/><stop offset="0.26" stop-color="#1983b9"/><stop offset="0.3" stop-color="#2171a4"/><stop offset="0.35" stop-color="#245a8b"/><stop offset="0.39" stop-color="#24497b"/><stop offset="0.49" stop-color="#24497b"/><stop offset="0.49" stop-color="#24497b"/><stop offset="0.6" stop-color="#1f6499"/><stop offset="0.7" stop-color="#1478b3"/><stop offset="0.76" stop-color="#0881c0"/><stop offset="0.85" stop-color="#1c6ba2"/><stop offset="1" stop-color="#24497b"/></linearGradient></defs><g id="Camada_2" data-name="Camada 2"><g id="rodapé"><path class="cls-1" d="M140,92.84c-22.52-9.07-45.24,2.19-65.45,14C52.4,119.67,28.26,130.32,0,118.59,4.61,93.32,11.32,66.88,16.64,38.21,42.26,46,58.88,34.39,78.8,19.61c25.25-18.74,53-25.67,79-13.61C151.22,38.21,145.74,64.83,140,92.84Z"/><path class="cls-2" d="M140,92.86a45.52,45.52,0,0,0-16.3-3.28c-2.71-4.12-11-13.67-30.46-13.67a80.77,80.77,0,0,0-20,2.8,88.78,88.78,0,0,1-22,3C27.66,81.72,15.4,70,11.23,65c2.21-10.38,3.93-18.89,5.39-26.78a54.84,54.84,0,0,0,15.65,2.46,37.78,37.78,0,0,0,26,10.24,48.72,48.72,0,0,0,18.21-3.79c11.89-4.78,22.94-7.32,32.86-7.43,22.9-.24,34.28,12.08,38,17.6L140,92.87Z"/><path class="cls-3" d="M83.61,55.3l-.12,1.09,1-1.74a.91.91,0,0,0,.1-.29l.07-.44Z"/><path class="cls-3" d="M83.56,55.2l-.1.87-.57-.61a.08.08,0,0,1,0-.07l0-.39Z"/><path class="cls-3" d="M83.56,53.56l-.12,1.08,1-1.74a.79.79,0,0,0,.1-.28l.07-.44Z"/><path class="cls-3" d="M83.51,53.46l-.1.87-.58-.6a.12.12,0,0,1,0-.07l0-.38Z"/><path class="cls-3" d="M83.18,52l-.12,1.08,1-1.73a.82.82,0,0,0,.11-.28l.06-.44Z"/><path class="cls-3" d="M83.13,52l-.1.86-.57-.59a.12.12,0,0,1,0-.07l0-.38Z"/><path class="cls-3" d="M83.31,57.26l-.12,1.11,1-1.75a.91.91,0,0,0,.1-.29l.07-.45Z"/><path class="cls-3" d="M83.26,57.17l-.1.88-.58-.62s0,0,0-.07l0-.4Z"/><path class="cls-3" d="M82.68,59.45l-.12,1.11,1-1.76a.79.79,0,0,0,.1-.28l.07-.46Z"/><path class="cls-3" d="M82.63,59.35l-.11.89L82,59.6s0,0,0-.07l0-.4Z"/><path class="cls-3" d="M81.72,61.83,81.59,63l1-1.76a.91.91,0,0,0,.1-.29l.07-.45Z"/><path class="cls-3" d="M81.66,61.74l-.1.89L81,62s0,0,0-.07l0-.4Z"/><path class="cls-3" d="M80.22,64.54l-.13,1.13,1-1.76a.86.86,0,0,0,.11-.29l.07-.46Z"/><path class="cls-3" d="M80.17,64.44l-.11.9-.57-.67a.08.08,0,0,1,0-.07l0-.4Z"/><path class="cls-3" d="M78.43,66.87,78.3,68l1-1.75a.91.91,0,0,0,.1-.29l.07-.46Z"/><path class="cls-3" d="M78.38,66.77l-.11.9L77.72,67a.1.1,0,0,1,0-.07l0-.41Z"/><path class="cls-4" d="M68.13,64.7,68,65.76,67.41,65a.34.34,0,0,1,0-.19l0-.4Z"/><path class="cls-4" d="M68.21,64.53l-.12.84L68.86,64a.19.19,0,0,0,0-.1l.08-.4Z"/><path class="cls-4" d="M68.63,62.73l-.15,1.05L67.92,63a.2.2,0,0,1,0-.18l.05-.4Z"/><path class="cls-4" d="M68.72,62.55l-.13.84L69.36,62l0-.1.07-.39Z"/><path class="cls-4" d="M69.44,60.57l-.15,1-.57-.72a.23.23,0,0,1,0-.19l0-.4Z"/><path class="cls-4" d="M69.52,60.4l-.12.83.77-1.37,0-.09.07-.4Z"/><path class="cls-4" d="M67.93,66.51l-.15,1.07-.57-.76a.27.27,0,0,1,0-.19l0-.41Z"/><path class="cls-4" d="M68,66.34l-.12.84.76-1.37a.69.69,0,0,0,0-.1l.07-.4Z"/><path class="cls-4" d="M68,68.16l-.16,1.08-.57-.78a.26.26,0,0,1,0-.19l0-.41Z"/><path class="cls-4" d="M68.11,68l-.12.86.77-1.39a.3.3,0,0,0,0-.1l.07-.4Z"/><path class="cls-4" d="M68.42,69.65l-.15,1.09L67.69,70a.29.29,0,0,1,0-.2l0-.41Z"/><path class="cls-4" d="M68.51,69.47l-.12.87.77-1.4a.36.36,0,0,0,0-.09l.08-.41Z"/><path class="cls-4" d="M69.31,70.88,69.15,72l-.58-.8a.24.24,0,0,1,0-.2l0-.42Z"/><path class="cls-4" d="M69.4,70.7l-.12.88.78-1.41a.42.42,0,0,0,0-.1l.07-.41Z"/><path class="cls-4" d="M70.63,71.37l-.15,1.11-.6-.81a.29.29,0,0,1,0-.2l0-.43Z"/><path class="cls-4" d="M70.72,71.18l-.13.89.79-1.42a.21.21,0,0,0,0-.1l.07-.42Z"/><path class="cls-5" d="M69.4,68.27,71.54,67a2.22,2.22,0,0,0,.77-.91l3.42-7-1.09.67a2.53,2.53,0,0,0-.77.84Z"/><path class="cls-5" d="M80.89,61.48l-2.3,1.36c-.3.17-.55.14-.67-.08L75.84,59,77,58.32c.27-.17.51-.18.67,0Z"/><path class="cls-4" d="M75.86,58.51l1.07-.65a1.54,1.54,0,0,0,.47-.53l2.14-3.93-.83.52a1.77,1.77,0,0,0-.53.58Z"/><path class="cls-4" d="M75.86,58.51l-1.06.65c-.16.1-.31.1-.39,0l-1.36-1.71.8-.5c.18-.11.34-.12.43,0Z"/><path class="cls-4" d="M77.72,54.31l-.49.31a1.08,1.08,0,0,0-.3.33l-.78,1.34.32.31Z"/><path class="cls-4" d="M75.61,55.77c0-.05-.15-.05-.26,0l-.48.3.82,1,.46-.79Z"/><path class="cls-4" d="M76.46,56.61l-.31-.31-.46.79h0c0,.06.14.06.24,0l.24-.15a.81.81,0,0,0,.28-.32Z"/><path class="cls-6" d="M124.19,122.82l-3.29,15.64a13,13,0,0,1-4,.49c-5.36,0-13.65-2-11.13-13.75,2.25-10.57,11.72-15,19.26-15,5,0,9.32,1.2,12,3.53l2.45-11.78a33.08,33.08,0,0,0-14.92-3.24c-12.76,0-28.07,7-31.91,25C88.78,142,100.69,150.16,115,150.16a43.93,43.93,0,0,0,16.46-3.24l5.26-25H125.26A1.09,1.09,0,0,0,124.19,122.82Z"/><path class="cls-6" d="M215.78,98.69a31.1,31.1,0,0,0-31.13,25c-3,14.18,4.25,26.51,21.45,26.51a31.12,31.12,0,0,0,31.14-25C240.24,111,232.28,98.69,215.78,98.69ZM224.12,124c-1.71,8.32-7.8,14.18-16.61,14.18-8.25,0-11.33-5.86-9.74-13.33,1.78-8.32,7.79-14.17,16.61-14.17C222.63,110.68,225.71,116.53,224.12,124Z"/><path class="cls-6" d="M254.92,113.43c.25-2.05,2.57-3.38,7.66-3.45a22,22,0,0,1,13.87,4.37l2.21-10.75a1.08,1.08,0,0,0-.51-1.16,31.17,31.17,0,0,0-15.41-3.74c-9.52,0-18.91,4.3-21,13.75-3.74,17.34,22.06,15,20.5,23.06-.39,2.18-3.56,3.38-8.64,3.38a24.89,24.89,0,0,1-16-5.36l-2.09,9.84a2.93,2.93,0,0,0,1.53,3.2,35.92,35.92,0,0,0,16.33,3.6c10.5,0,19.55-3.1,22.18-14.32C279.68,118.64,254.16,119.91,254.92,113.43Z"/><path class="cls-6" d="M295.11,113.43c.25-2.05,2.57-3.38,7.66-3.45a22.06,22.06,0,0,1,13.87,4.37l2.21-10.75a1.1,1.1,0,0,0-.51-1.16,31.17,31.17,0,0,0-15.41-3.74c-9.52,0-18.91,4.3-21,13.75-3.73,17.34,22.07,15,20.51,23.06-.39,2.18-3.56,3.38-8.64,3.38a24.89,24.89,0,0,1-16-5.36l-2.09,9.84a2.93,2.93,0,0,0,1.53,3.2,35.92,35.92,0,0,0,16.33,3.6c10.51,0,19.55-3.1,22.18-14.32C319.87,118.64,294.35,119.91,295.11,113.43Z"/><path class="cls-6" d="M166.58,99.75H147.53a1.82,1.82,0,0,0-1.78,1.44l-10.11,47.92h13.05l7.88-37.22a1.08,1.08,0,0,1,1.06-.86H165c3.74,0,6,1.55,5.13,5.64a7.55,7.55,0,0,1-7.22,5.76h-6.83L167.32,147a3.62,3.62,0,0,0,3.3,2.13h10.71L172,131c5.6-2.28,9.84-6.46,11.43-13.84C186.26,103.7,175.88,99.75,166.58,99.75Z"/><path class="cls-6" d="M343.92,99.75h11.44l9,49.36H351.22L350,141.35H330.62a1.8,1.8,0,0,0-1.58.92l-3.9,6.84H311.46L339.89,102A4.7,4.7,0,0,1,343.92,99.75Zm4.46,31-2-13.83a30.77,30.77,0,0,1-.28-5.43,31.94,31.94,0,0,1-2.46,5.29l-8,14Z"/><path class="cls-6" d="M157.14,45.31a1.81,1.81,0,0,1,1.78-1.44h17.61c11.4,0,20.69,4.26,17.89,17.55-2.61,12.44-11.54,16-24,16h-7.13l-2.95,14a1.82,1.82,0,0,1-1.78,1.44H147.12Zm15.7,20.93c4.33,0,7.63-1.54,8.47-5.66,1-4.69-2.36-5.53-5.93-5.53h-6.46a1.08,1.08,0,0,0-1.06.86l-2.23,10.33Z"/><path class="cls-6" d="M193.68,67.57a30.84,30.84,0,0,1,30.87-24.76c16.37,0,24.25,12.24,21.28,26.29A30.86,30.86,0,0,1,215,93.86C197.89,93.86,190.7,81.62,193.68,67.57Zm39.14.35c1.57-7.41-1.48-13.22-9.66-13.22-8.74,0-14.71,5.81-16.47,14.06C205.11,76.17,208.16,82,216.35,82,225.09,82,231.12,76.17,232.82,67.92Z"/><path class="cls-6" d="M254.77,43.86h8.6a3.63,3.63,0,0,1,3.2,1.92l13.88,25.91a66.28,66.28,0,0,1,1.25-7.9l4.19-19.93h12.94l-10.33,49H279a2.18,2.18,0,0,1-1.92-1.15L262.9,65.05a52.33,52.33,0,0,1-1.09,7.27L257.39,92.8H244.45Z"/><path class="cls-6" d="M312.55,55.4H298.71L301,44.72a1.09,1.09,0,0,1,1.06-.86h39.68l-2.06,9.83a2.15,2.15,0,0,1-2.11,1.71h-12L317.77,92a1.07,1.07,0,0,1-1,.86H304.66Z"/><path class="cls-6" d="M355.61,43.86h11.32l8.9,49h-13l-1.21-7.69H342.4a1.8,1.8,0,0,0-1.58.92L337,92.81H323.39l28.18-46.66A4.72,4.72,0,0,1,355.61,43.86ZM360,74.63l-1.94-13.7a29.57,29.57,0,0,1-.27-5.39,31.24,31.24,0,0,1-2.45,5.24l-7.92,13.85Z"/><path class="cls-7" d="M98.94,162.72h4.55c2.67,0,5,1,4.31,4.21-.63,3-2.93,3.9-5.89,3.9H99.83l-.83,4H96.4Zm3.45,5.83c1.41,0,2.51-.43,2.81-1.81s-.82-1.75-2-1.75h-2.18l-.75,3.56Z"/><path class="cls-7" d="M127.69,162.72h4.9c2.24,0,4.63,1,4,4.09a4.36,4.36,0,0,1-3.32,3.45l2.57,4.54H133l-2.3-4.23h-2.12l-.87,4.23h-2.6Zm3.81,5.69a2.3,2.3,0,0,0,2.45-1.74c.28-1.28-.57-1.68-1.67-1.68h-2.47l-.73,3.42Z"/><path class="cls-7" d="M157.09,162.72h8.49L165.1,165h-5.91l-.54,2.57h5.4l-.48,2.28h-5.39l-.57,2.68h6l-.47,2.27h-8.6Z"/><path class="cls-7" d="M185,162.72h8.52l-.51,2.35h-5.92l-.59,2.79h5.44l-.51,2.35H186l-1,4.59h-2.6Z"/><path class="cls-7" d="M212.66,162.72h8.48l-.48,2.28h-5.9l-.55,2.57h5.41l-.49,2.28h-5.39l-.57,2.68h6l-.47,2.27h-8.59Z"/><path class="cls-7" d="M240.54,162.72h2.6l-2.55,12.08H238Z"/><path class="cls-7" d="M265.08,165.07h-3.69l.49-2.35h10l-.51,2.35h-3.67l-2.05,9.73H263Z"/><path class="cls-7" d="M288.91,170.17l1.58-7.45h2.59l-1.59,7.47c-.39,1.91.53,2.5,2.08,2.5a3.09,3.09,0,0,0,3.37-2.64l1.54-7.33h2.59l-1.58,7.61c-.78,3.57-3.43,4.71-6.14,4.71S288.17,173.76,288.91,170.17Z"/><path class="cls-7" d="M320.77,162.72h4.9c2.24,0,4.63,1,4,4.09a4.35,4.35,0,0,1-3.32,3.45l2.57,4.54h-2.8l-2.3-4.23h-2.12l-.87,4.23h-2.6Zm3.81,5.69a2.3,2.3,0,0,0,2.45-1.74c.28-1.28-.57-1.68-1.67-1.68h-2.47l-.73,3.42Z"/><path class="cls-7" d="M353.84,162.72h2.8L359,174.8h-2.62l-.4-2.24h-5.53l-1.34,2.24h-2.74Zm1.78,7.66-.75-4.22a6.18,6.18,0,0,1-.06-1,8.35,8.35,0,0,1-.5,1l-2.57,4.25h3.88Z"/></g></g></svg>